<svg xmlns="http://www.w3.org/2000/svg" xmlns:xlink="http://www.w3.org/1999/xlink" version="1.1" viewBox="0 0 512 512" style="width: 200px; height: 200px; transform-origin: 50% 50%; transform: scaleX(1) scaleY(1) rotate(0deg);" xml:space="preserve" preserveAspectRatio="xMidYMid meet"><g id="_x34_5_Keyboard" class=""><g class=""><linearGradient id="SVGID_1_" gradientUnits="userSpaceOnUse" x1="285.5213" y1="-214.7001" x2="226.0146" y2="892.1244"><stop offset="0" style="stop-color:#EAE9FE"/><stop offset="0.4236" style="stop-color:#EEEEFE"/><stop offset="0.8967" style="stop-color:#FBFBFF"/><stop offset="1" style="stop-color:#FFFFFF"/></linearGradient><path style="fill:url(#SVGID_1_);" d="M472.914,264.434c-9.683-7.535-21.378-14.027-25.882-25.439    c-6.125-15.52,3.665-32.176,9.439-47.831c17.628-47.798-4.997-104.402-45.589-135.186    C333.444-2.749,182.282,17.836,161.159,99.006c-8.936,34.337,7.074,73.513-9.306,104.987    c-20.667,39.713-75.492,42.391-110.802,60.05c-43.746,21.878-52.499,69.515-21.125,105.783    c11.521,13.318,26.263,22.493,36.829,37.044c15.288,21.055,23.863,44.338,44.319,61.705c28.805,24.456,76.964,30.52,102.464,2.636    c14.359-15.702,19.032-38.836,34.706-53.226c20.633-18.942,53.243-16.394,79.499-6.639c26.255,9.754,50.606,25.505,78.261,29.944    c43.239,6.94,89.601-18.431,107.066-58.591S507.476,291.328,472.914,264.434z"/><path style="fill:#2769FD;" d="M94.569,96.533c0-13.288,10.722-24.087,24.014-24.087c13.366,0,24.087,10.799,24.087,24.087    c0,13.288-10.722,24.087-24.087,24.087C105.291,120.62,94.569,109.821,94.569,96.533z" class=""/><path style="fill:#F9BB40;" d="M236.532,54.757c0-13.288,10.722-24.087,24.014-24.087c13.366,0,24.087,10.799,24.087,24.087    c0,13.288-10.722,24.087-24.087,24.087C247.254,78.845,236.532,68.045,236.532,54.757z"/><path style="fill:#5EDB6B;" d="M378.495,96.533c0-13.288,10.722-24.087,24.014-24.087c13.366,0,24.087,10.799,24.087,24.087    s-10.722,24.087-24.087,24.087C389.217,120.62,378.495,109.821,378.495,96.533z"/><path style="fill:#2769FD;" d="M94.569,96.533c0-13.288,10.722-24.087,24.014-24.087c13.366,0,24.087,10.799,24.087,24.087    c0,13.288-10.722,24.087-24.087,24.087C105.291,120.62,94.569,109.821,94.569,96.533z" class=""/><path style="fill:#F9BB40;" d="M236.532,54.757c0-13.288,10.722-24.087,24.014-24.087c13.366,0,24.087,10.799,24.087,24.087    c0,13.288-10.722,24.087-24.087,24.087C247.254,78.845,236.532,68.045,236.532,54.757z"/><path style="fill:#5EDB6B;" d="M378.495,96.533c0-13.288,10.722-24.087,24.014-24.087c13.366,0,24.087,10.799,24.087,24.087    s-10.722,24.087-24.087,24.087C389.217,120.62,378.495,109.821,378.495,96.533z"/><path style="fill:#EDEDED;" d="M503.64,246.469v213.993c0,11.186-9.068,20.255-20.255,20.255H37.78    c-11.186,0-20.255-9.068-20.255-20.255V246.469c0-11.186,9.068-20.255,20.255-20.255h445.605    C494.572,226.214,503.64,235.282,503.64,246.469z" class=""/><path style="fill:#A249E5" d="M94.247,271.299v31.142c0,4.195-3.401,7.596-7.596,7.596h-31.14c-4.195,0-7.596-3.401-7.596-7.596    v-31.142c0-4.195,3.401-7.596,7.596-7.596h31.14C90.847,263.704,94.247,267.104,94.247,271.299z" class=""/><path style="fill:#A249E5" d="M170.048,271.299v31.142c0,4.195-3.401,7.596-7.596,7.596h-31.14c-4.195,0-7.596-3.401-7.596-7.596    v-31.142c0-4.195,3.401-7.596,7.596-7.596h31.14C166.647,263.704,170.048,267.104,170.048,271.299z" class=""/><path style="fill:#A249E5" d="M245.848,271.299v31.142c0,4.195-3.401,7.596-7.596,7.596h-31.14c-4.195,0-7.596-3.401-7.596-7.596    v-31.142c0-4.195,3.401-7.596,7.596-7.596h31.14C242.447,263.704,245.848,267.104,245.848,271.299z" class=""/><path style="fill:#A249E5" d="M321.648,271.299v31.142c0,4.195-3.401,7.596-7.596,7.596h-31.14c-4.195,0-7.596-3.401-7.596-7.596    v-31.142c0-4.195,3.401-7.596,7.596-7.596h31.14C318.248,263.704,321.648,267.104,321.648,271.299z" class=""/><path style="fill:#A249E5" d="M397.448,271.299v31.142c0,4.195-3.401,7.596-7.596,7.596h-31.14c-4.195,0-7.596-3.401-7.596-7.596    v-31.142c0-4.195,3.401-7.596,7.596-7.596h31.14C394.048,263.704,397.448,267.104,397.448,271.299z" class=""/><path style="fill:#A249E5" d="M473.249,271.299v31.142c0,4.195-3.401,7.596-7.596,7.596h-31.14c-4.195,0-7.596-3.401-7.596-7.596    v-31.142c0-4.195,3.401-7.596,7.596-7.596h31.14C469.848,263.704,473.249,267.104,473.249,271.299z" class=""/><path style="fill:#A249E5" d="M94.247,337.888v31.142c0,4.195-3.401,7.596-7.596,7.596h-31.14c-4.195,0-7.596-3.401-7.596-7.596    v-31.142c0-4.195,3.401-7.596,7.596-7.596h31.14C90.847,330.293,94.247,333.693,94.247,337.888z" class=""/><path style="fill:#A249E5" d="M170.048,337.888v31.142c0,4.195-3.401,7.596-7.596,7.596h-31.14c-4.195,0-7.596-3.401-7.596-7.596    v-31.142c0-4.195,3.401-7.596,7.596-7.596h31.14C166.647,330.293,170.048,333.693,170.048,337.888z" class=""/><path style="fill:#A249E5" d="M245.848,337.888v31.142c0,4.195-3.401,7.596-7.596,7.596h-31.14c-4.195,0-7.596-3.401-7.596-7.596    v-31.142c0-4.195,3.401-7.596,7.596-7.596h31.14C242.447,330.293,245.848,333.693,245.848,337.888z" class=""/><path style="fill:#A249E5" d="M321.648,337.888v31.142c0,4.195-3.401,7.596-7.596,7.596h-31.14c-4.195,0-7.596-3.401-7.596-7.596    v-31.142c0-4.195,3.401-7.596,7.596-7.596h31.14C318.248,330.293,321.648,333.693,321.648,337.888z" class=""/><path style="fill:#A249E5" d="M397.448,337.888v31.142c0,4.195-3.401,7.596-7.596,7.596h-31.14c-4.195,0-7.596-3.401-7.596-7.596    v-31.142c0-4.195,3.401-7.596,7.596-7.596h31.14C394.048,330.293,397.448,333.693,397.448,337.888z" class=""/><path style="fill:#A249E5" d="M473.249,337.888v31.142c0,4.195-3.401,7.596-7.596,7.596h-31.14c-4.195,0-7.596-3.401-7.596-7.596    v-31.142c0-4.195,3.401-7.596,7.596-7.596h31.14C469.848,330.293,473.249,333.693,473.249,337.888z" class=""/><path style="fill:#A249E5" d="M94.247,404.477v31.142c0,4.195-3.401,7.596-7.596,7.596h-31.14c-4.195,0-7.596-3.401-7.596-7.596    v-31.142c0-4.195,3.401-7.596,7.596-7.596h31.14C90.847,396.882,94.247,400.282,94.247,404.477z" class=""/><path style="fill:#A249E5" d="M170.048,404.477v31.142c0,4.195-3.401,7.596-7.596,7.596h-31.14c-4.195,0-7.596-3.401-7.596-7.596    v-31.142c0-4.195,3.401-7.596,7.596-7.596h31.14C166.647,396.882,170.048,400.282,170.048,404.477z" class=""/><path style="fill:#FF5859;" d="M329.256,404.488v31.142c0,4.195-3.401,7.596-7.596,7.596H199.524    c-4.195,0-7.596-3.401-7.596-7.596v-31.142c0-4.195,3.401-7.596,7.596-7.596H321.66    C325.855,396.893,329.256,400.293,329.256,404.488z" class=""/><path style="fill:#A249E5" d="M397.448,404.477v31.142c0,4.195-3.401,7.596-7.596,7.596h-31.14c-4.195,0-7.596-3.401-7.596-7.596    v-31.142c0-4.195,3.401-7.596,7.596-7.596h31.14C394.048,396.882,397.448,400.282,397.448,404.477z" class=""/><path style="fill:#A249E5" d="M473.249,404.477v31.142c0,4.195-3.401,7.596-7.596,7.596h-31.14c-4.195,0-7.596-3.401-7.596-7.596    v-31.142c0-4.195,3.401-7.596,7.596-7.596h31.14C469.848,396.882,473.249,400.282,473.249,404.477z" class=""/><path style="fill:#332E8E;" d="M483.385,221.303H337.714V173.19l51.117-51.117c4.075,2.202,8.732,3.458,13.677,3.458    c15.989,0,28.998-13.009,28.998-28.998s-13.009-28.998-28.998-28.998c-15.949,0-28.924,13.009-28.924,28.998    c0,7.466,2.853,14.26,7.494,19.406l-51.746,51.746c-0.921,0.921-1.439,2.171-1.439,3.472v50.146h-62.399V83.3    c13.635-2.359,24.05-14.245,24.05-28.544c0-15.989-13.009-28.998-28.998-28.998c-15.949,0-28.924,13.009-28.924,28.998    c0,14.32,10.419,26.219,24.05,28.553v137.993h-57.303v-50.146c0-1.301-0.518-2.551-1.439-3.472l-54.583-54.583    c3.289-4.702,5.234-10.409,5.234-16.569c0-15.989-13.009-28.998-28.999-28.998c-15.949,0-28.924,13.009-28.924,28.998    s12.975,28.998,28.926,28.998c6.289,0,12.099-2.034,16.856-5.449l53.108,53.108v48.113H37.781    c-13.877,0-25.166,11.289-25.166,25.168v213.991c0,13.875,11.289,25.164,25.166,25.164h445.605    c13.877,0,25.166-11.289,25.166-25.164V246.47C508.551,232.592,497.262,221.303,483.385,221.303z M402.508,77.357    c10.574,0,19.176,8.603,19.176,19.176s-8.602,19.176-19.176,19.176c-10.533,0-19.103-8.603-19.103-19.176    S391.975,77.357,402.508,77.357z M241.443,54.756c0-10.573,8.57-19.176,19.103-19.176c10.574,0,19.176,8.603,19.176,19.176    s-8.602,19.176-19.176,19.176C250.013,73.933,241.443,65.329,241.443,54.756z M99.48,96.533c0-10.573,8.57-19.176,19.103-19.176    c10.574,0,19.178,8.603,19.178,19.176s-8.602,19.176-19.176,19.176C108.05,115.709,99.48,107.106,99.48,96.533z M498.73,460.461    c0,8.46-6.883,15.343-15.344,15.343H37.781c-8.461,0-15.344-6.883-15.344-15.343V246.47c0-8.463,6.883-15.346,15.344-15.346    h445.605c8.461,0,15.344,6.883,15.344,15.346V460.461z" class=""/><path style="fill:#332E8E;" d="M86.651,258.792h-31.14c-6.896,0-12.505,5.611-12.505,12.507v31.143    c0,6.896,5.609,12.507,12.505,12.507h31.14c6.896,0,12.507-5.611,12.507-12.507v-31.143    C99.158,264.403,93.547,258.792,86.651,258.792z M89.337,302.442c0,1.48-1.205,2.686-2.686,2.686h-31.14    c-1.48,0-2.684-1.205-2.684-2.686v-31.143c0-1.48,1.204-2.686,2.684-2.686h31.14c1.48,0,2.686,1.205,2.686,2.686V302.442z" class=""/><path style="fill:#332E8E;" d="M162.453,258.792h-31.14c-6.896,0-12.507,5.611-12.507,12.507v31.143    c0,6.896,5.611,12.507,12.507,12.507h31.14c6.896,0,12.505-5.611,12.505-12.507v-31.143    C174.958,264.403,169.349,258.792,162.453,258.792z M165.137,302.442c0,1.48-1.204,2.686-2.684,2.686h-31.14    c-1.48,0-2.686-1.205-2.686-2.686v-31.143c0-1.48,1.205-2.686,2.686-2.686h31.14c1.48,0,2.684,1.205,2.684,2.686V302.442z" class=""/><path style="fill:#332E8E;" d="M207.113,314.949h31.14c6.896,0,12.505-5.611,12.505-12.507v-31.143    c0-6.896-5.609-12.507-12.505-12.507h-31.14c-6.896,0-12.507,5.611-12.507,12.507v31.143    C194.606,309.338,200.217,314.949,207.113,314.949z M204.428,271.299c0-1.48,1.205-2.686,2.686-2.686h31.14    c1.48,0,2.684,1.205,2.684,2.686v31.143c0,1.48-1.204,2.686-2.684,2.686h-31.14c-1.48,0-2.686-1.205-2.686-2.686V271.299z" class=""/><path style="fill:#332E8E;" d="M282.913,314.949h31.14c6.896,0,12.507-5.611,12.507-12.507v-31.143    c0-6.896-5.611-12.507-12.507-12.507h-31.14c-6.896,0-12.505,5.611-12.505,12.507v31.143    C270.408,309.338,276.017,314.949,282.913,314.949z M280.229,271.299c0-1.48,1.204-2.686,2.684-2.686h31.14    c1.48,0,2.686,1.205,2.686,2.686v31.143c0,1.48-1.205,2.686-2.686,2.686h-31.14c-1.48,0-2.684-1.205-2.684-2.686V271.299z" class=""/><path style="fill:#332E8E;" d="M389.853,258.792h-31.14c-6.896,0-12.505,5.611-12.505,12.507v31.143    c0,6.896,5.609,12.507,12.505,12.507h31.14c6.896,0,12.507-5.611,12.507-12.507v-31.143    C402.36,264.403,396.749,258.792,389.853,258.792z M392.538,302.442c0,1.48-1.205,2.686-2.686,2.686h-31.14    c-1.48,0-2.684-1.205-2.684-2.686v-31.143c0-1.48,1.204-2.686,2.684-2.686h31.14c1.48,0,2.686,1.205,2.686,2.686V302.442z" class=""/><path style="fill:#332E8E;" d="M465.653,258.792h-31.138c-6.896,0-12.507,5.611-12.507,12.507v31.143    c0,6.896,5.611,12.507,12.507,12.507h31.138c6.896,0,12.507-5.611,12.507-12.507v-31.143    C478.16,264.403,472.549,258.792,465.653,258.792z M468.338,302.442c0,1.48-1.205,2.686-2.686,2.686h-31.138    c-1.48,0-2.686-1.205-2.686-2.686v-31.143c0-1.48,1.205-2.686,2.686-2.686h31.138c1.48,0,2.686,1.205,2.686,2.686V302.442z" class=""/><path style="fill:#332E8E;" d="M86.651,325.381h-31.14c-6.896,0-12.505,5.611-12.505,12.507v31.143    c0,6.896,5.609,12.507,12.505,12.507h31.14c6.896,0,12.507-5.611,12.507-12.507v-31.143    C99.158,330.992,93.547,325.381,86.651,325.381z M89.337,369.031c0,1.48-1.205,2.686-2.686,2.686h-31.14    c-1.48,0-2.684-1.205-2.684-2.686v-31.143c0-1.48,1.204-2.686,2.684-2.686h31.14c1.48,0,2.686,1.205,2.686,2.686V369.031z" class=""/><path style="fill:#332E8E;" d="M162.453,325.381h-31.14c-6.896,0-12.507,5.611-12.507,12.507v31.143    c0,6.896,5.611,12.507,12.507,12.507h31.14c6.896,0,12.505-5.611,12.505-12.507v-31.143    C174.958,330.992,169.349,325.381,162.453,325.381z M165.137,369.031c0,1.48-1.204,2.686-2.684,2.686h-31.14    c-1.48,0-2.686-1.205-2.686-2.686v-31.143c0-1.48,1.205-2.686,2.686-2.686h31.14c1.48,0,2.684,1.205,2.684,2.686V369.031z" class=""/><path style="fill:#332E8E;" d="M207.113,381.538h31.14c6.896,0,12.505-5.611,12.505-12.507v-31.143    c0-6.896-5.609-12.507-12.505-12.507h-31.14c-6.896,0-12.507,5.611-12.507,12.507v31.143    C194.606,375.927,200.217,381.538,207.113,381.538z M204.428,337.888c0-1.48,1.205-2.686,2.686-2.686h31.14    c1.48,0,2.684,1.205,2.684,2.686v31.143c0,1.48-1.204,2.686-2.684,2.686h-31.14c-1.48,0-2.686-1.205-2.686-2.686V337.888z" class=""/><path style="fill:#332E8E;" d="M282.913,381.538h31.14c6.896,0,12.507-5.611,12.507-12.507v-31.143    c0-6.896-5.611-12.507-12.507-12.507h-31.14c-6.896,0-12.505,5.611-12.505,12.507v31.143    C270.408,375.927,276.017,381.538,282.913,381.538z M280.229,337.888c0-1.48,1.204-2.686,2.684-2.686h31.14    c1.48,0,2.686,1.205,2.686,2.686v31.143c0,1.48-1.205,2.686-2.686,2.686h-31.14c-1.48,0-2.684-1.205-2.684-2.686V337.888z" class=""/><path style="fill:#332E8E;" d="M389.853,325.381h-31.14c-6.896,0-12.505,5.611-12.505,12.507v31.143    c0,6.896,5.609,12.507,12.505,12.507h31.14c6.896,0,12.507-5.611,12.507-12.507v-31.143    C402.36,330.992,396.749,325.381,389.853,325.381z M392.538,369.031c0,1.48-1.205,2.686-2.686,2.686h-31.14    c-1.48,0-2.684-1.205-2.684-2.686v-31.143c0-1.48,1.204-2.686,2.684-2.686h31.14c1.48,0,2.686,1.205,2.686,2.686V369.031z" class=""/><path style="fill:#332E8E;" d="M465.653,325.381h-31.138c-6.896,0-12.507,5.611-12.507,12.507v31.143    c0,6.896,5.611,12.507,12.507,12.507h31.138c6.896,0,12.507-5.611,12.507-12.507v-31.143    C478.16,330.992,472.549,325.381,465.653,325.381z M468.338,369.031c0,1.48-1.205,2.686-2.686,2.686h-31.138    c-1.48,0-2.686-1.205-2.686-2.686v-31.143c0-1.48,1.205-2.686,2.686-2.686h31.138c1.48,0,2.686,1.205,2.686,2.686V369.031z" class=""/><path style="fill:#332E8E;" d="M86.651,391.97h-31.14c-6.896,0-12.505,5.611-12.505,12.507v31.143    c0,6.896,5.609,12.507,12.505,12.507h31.14c6.896,0,12.507-5.611,12.507-12.507v-31.143    C99.158,397.581,93.547,391.97,86.651,391.97z M89.337,435.62c0,1.48-1.205,2.686-2.686,2.686h-31.14    c-1.48,0-2.684-1.205-2.684-2.686v-31.143c0-1.48,1.204-2.686,2.684-2.686h31.14c1.48,0,2.686,1.205,2.686,2.686V435.62z" class=""/><path style="fill:#332E8E;" d="M162.453,391.97h-31.14c-6.896,0-12.507,5.611-12.507,12.507v31.143    c0,6.896,5.611,12.507,12.507,12.507h31.14c6.896,0,12.505-5.611,12.505-12.507v-31.143    C174.958,397.581,169.349,391.97,162.453,391.97z M165.137,435.62c0,1.48-1.204,2.686-2.684,2.686h-31.14    c-1.48,0-2.686-1.205-2.686-2.686v-31.143c0-1.48,1.205-2.686,2.686-2.686h31.14c1.48,0,2.684,1.205,2.684,2.686V435.62z" class=""/><path style="fill:#332E8E;" d="M321.66,391.983H199.523c-6.896,0-12.505,5.611-12.505,12.507v31.14    c0,6.896,5.609,12.507,12.505,12.507H321.66c6.896,0,12.507-5.611,12.507-12.507v-31.14    C334.167,397.594,328.556,391.983,321.66,391.983z M324.346,435.63c0,1.48-1.205,2.686-2.686,2.686H199.523    c-1.48,0-2.684-1.205-2.684-2.686v-31.14c0-1.48,1.204-2.686,2.684-2.686H321.66c1.48,0,2.686,1.205,2.686,2.686V435.63z" class=""/><path style="fill:#332E8E;" d="M389.853,391.97h-31.14c-6.896,0-12.505,5.611-12.505,12.507v31.143    c0,6.896,5.609,12.507,12.505,12.507h31.14c6.896,0,12.507-5.611,12.507-12.507v-31.143    C402.36,397.581,396.749,391.97,389.853,391.97z M392.538,435.62c0,1.48-1.205,2.686-2.686,2.686h-31.14    c-1.48,0-2.684-1.205-2.684-2.686v-31.143c0-1.48,1.204-2.686,2.684-2.686h31.14c1.48,0,2.686,1.205,2.686,2.686V435.62z" class=""/><path style="fill:#332E8E;" d="M465.653,391.97h-31.138c-6.896,0-12.507,5.611-12.507,12.507v31.143    c0,6.896,5.611,12.507,12.507,12.507h31.138c6.896,0,12.507-5.611,12.507-12.507v-31.143    C478.16,397.581,472.549,391.97,465.653,391.97z M468.338,435.62c0,1.48-1.205,2.686-2.686,2.686h-31.138    c-1.48,0-2.686-1.205-2.686-2.686v-31.143c0-1.48,1.205-2.686,2.686-2.686h31.138c1.48,0,2.686,1.205,2.686,2.686V435.62z" class=""/></g></g><g id="Layer_1" class=""/></svg>